<mxfile
  host="Electron" 
  agent="Mozilla/5.0 (Macintosh; Intel Mac OS X 10_15_7) AppleWebKit/537.36 (KHTML, like Gecko) draw.io/25.0.2 Chrome/128.0.6613.186 Electron/32.2.5 Safari/537.36" 
  version="25.0.2"
  >
  <diagram
    name="-"
    >
    <mxGraphModel
      grid="1" 
      gridSize="10" 
      guides="1" 
      tooltips="1" 
      connect="1" 
      arrows="1" 
      fold="1" 
      page="1" 
      pageScale="1" 
      pageWidth="1" 
      pageHeight="1" 
      math="0" 
      shadow="0"
      >
      <root>
        <mxCell
          id="page"
          />
        <mxCell
          id="root" 
          parent="page"
          />
        <mxCell
          style="verticalAlign=top;aspect=fixed;align=center;spacingLeft=5;spacingRight=5;spacingBottom=5;strokeColor=none;" 
          id="shape_" 
          parent="root" 
          value=" " 
          vertex="1"
          >
          <mxGeometry
            as="geometry" 
            width="120" 
            height="120" 
            x="0" 
            y="0"
            />
          </mxCell>
        <mxCell
          style="rounded=1;whiteSpace=wrap;verticalAlign=top;align=center;sketch=0;html=1;labelPosition=center;verticalLabelPosition=bottom;spacingTop=-6;fontSize=11;fontStyle=1;fontColor=#999999;shape=image;aspect=fixed;imageAspect=0;image=data:image/svg+xml,PHN2ZyB4bWxucz0iaHR0cDovL3d3dy53My5vcmcvMjAwMC9zdmciIGlkPSJzdmcyNDYzMyIgdmVyc2lvbj0iMS4xIiB2aWV3Qm94PSIwIDAgMjYzLjMwODg0IDI1OC4xNDg4IiBoZWlnaHQ9IjI1OC4xNDg4bW0iIHdpZHRoPSIyNjMuMzA4ODRtbSI+JiN4YTsgICYjeGE7ICA8ZGVmcyBpZD0iZGVmczI0NjMwIi8+JiN4YTsgIDxnIHRyYW5zZm9ybT0idHJhbnNsYXRlKC0xOC41Mjk4OTgsMC4wNDIwNzMyNSkiIGlkPSJsYXllcjEiPiYjeGE7ICAgIDxwYXRoIHRyYW5zZm9ybT0ibWF0cml4KDAuMjY0NTgzMzMsMCwwLDAuMjY0NTgzMzMsMC4xOTQzMDM0Miw1LjQzMTE5MjkpIiBkPSJtIDI0Ny4wNTI3MywtMjAuNjgxNjQxIC0xNDAuNTU4NTksMi4yMjg1MTYgYyAtMjAuODY5MjAyLDAuMzMxOTYgLTM3LjUxODcwNywxNy41MTc0NzQzOCAtMzcuMTg5NDUyLDM4LjM4NjcxOSAwLjMyNzY5MywyMC44NzIyNzMgMTcuNTE0NDczLDM3LjUyNjUwMSAzOC4zODY3MjIsMzcuMTk3MjY1IGwgMTE1Ljg2NTIzLC0xLjg0NTcwMyAxODcuMjIwNyw0MDkuNDI5Njg0IC02Mi42NjA5MSwxMjQuOTM5NDkgYyAtMjIuNzEyODIsNDcuMzAyODQgOC4xOTM3MSwxMTAuNjgxNjEgNjYuNDg1OTcsMTEwLjY4MTYxIGwgNTc0LjUzMDQxLDEuMTczODMgYyAyMC44NzM0OSwwLjAzNjUgMzcuODI0NDksLTE2Ljg1NTA0IDM3Ljg2MTI5LC0zNy43Mjg1MiAwLjAzNywtMjAuODcwNDMgLTE2Ljg1MDIsLTM3LjgyMDE2IC0zNy43MjA2NiwtMzcuODYxMzMgbCAtNTcxLjU5NTcxLC0xLjA2MjUgNTguNjM0NzcsLTEyMi4wMDk3NiAzNjguOTc2NTYsLTAuODE4MzYgYyAxMy42Mjg1NSwtMC4wMjk4IDI2LjE4NTgsLTcuMzkzOTEgMzIuODY1MjQsLTE5LjI3MzQ0IGwgMTgxLjQ3NDYsLTMyMi45MzU1NSBjIDEwLjIyNzUsLTE4LjE5NzI3IDMuNzY2MiwtNDEuMjQwMTQgLTE0LjQzMTYsLTUxLjQ2Njc5IC04LjczOTMsLTQuOTEwMDggLTE5LjA3MTIsLTYuMTQ3MyAtMjguNzIyNywtMy40Mzk0NiAtOS42NTA0LDIuNzA1OTkgLTE3LjgzMDg2LDkuMTM0MyAtMjIuNzQyMTgsMTcuODcxMSBMIDgyMy4wNjI1LDQyNi40OTAyMyA0NzYuNzY5NTMsNDI3LjI1NTg2IDI4Mi4wMjE0OCwxLjM4ODY3MTkgQyAyNzUuNzc5MywtMTIuMjU2OTQxIDI2Mi4wNTY0NSwtMjAuOTE4MDMgMjQ3LjA1MjczLC0yMC42ODE2NDEgWiIgc3R5bGU9ImNvbG9yOiMwMDAwMDA7b3BhY2l0eToxO2ZpbGw6IzU5ODZmMjtmaWxsLW9wYWNpdHk6MTtzdHJva2Utd2lkdGg6My43Nzk1MztzdHJva2UtbGluZWNhcDpyb3VuZDtzdHJva2UtbGluZWpvaW46cm91bmQ7LWlua3NjYXBlLXN0cm9rZTpub25lIiBpZD0icGF0aDE2MTAyIi8+JiN4YTsgICAgPHBhdGggaWQ9InJlY3QxNzc2MyIgZD0ibSAxMjMuMjY2LDQxLjM3NjY1OSBoIDIyLjM0NjA3IGMgMi4yODkyMywwIDQuMTMyMiwxLjg0Mjk2MiA0LjEzMjIsNC4xMzIyMDIgdiA2Mi4wNjgzMjkgaCAtMTYuNjM5NyBMIDExOS4xMzM4LDc2LjM0MjA3OSBWIDQ1LjUwODg2MSBjIDAsLTIuMjg5MjQgMS44NDI5NiwtNC4xMzIyMDIgNC4xMzIyLC00LjEzMjIwMiB6IiBzdHlsZT0iY29sb3I6IzAwMDAwMDtvcGFjaXR5OjE7ZmlsbDojYjVjYmY5O2ZpbGwtb3BhY2l0eToxO3N0cm9rZS13aWR0aDoyMDtzdHJva2UtbGluZWNhcDpyb3VuZDtzdHJva2UtbGluZWpvaW46cm91bmQ7LWlua3NjYXBlLXN0cm9rZTpub25lIi8+JiN4YTsgICAgPHBhdGggaWQ9InJlY3QxNzc2My01IiBkPSJtIDE2NC40OTE5OCwyNy4xMDYwMDkgaCAyMS40NjEwOSBjIDIuNjk3OSwwIDQuODY5ODUsMi4xNzE5NTEgNC44Njk4NSw0Ljg2OTg0NSBWIDEwNy41NzcxOSBIIDE1OS42MjIxMyBWIDMxLjk3NTg1NCBjIDAsLTIuNjk3ODk0IDIuMTcxOTUsLTQuODY5ODQ1IDQuODY5ODUsLTQuODY5ODQ1IHoiIHN0eWxlPSJjb2xvcjojMDAwMDAwO29wYWNpdHk6MTtmaWxsOiM3NjllZjU7ZmlsbC1vcGFjaXR5OjE7c3Ryb2tlLXdpZHRoOjIwO3N0cm9rZS1saW5lY2FwOnJvdW5kO3N0cm9rZS1saW5lam9pbjpyb3VuZDstaW5rc2NhcGUtc3Ryb2tlOm5vbmUiLz4mI3hhOyAgICA8cGF0aCBpZD0icmVjdDE3NzYzLTMiIGQ9Im0gMjA1LjUwMTk2LDAuMzQ1MDg2NjMgaCAyMS4xMDEzMiBjIDIuODUyMDYsMCA1LjE0ODEyLDIuMjk2MDYyNzcgNS4xNDgxMiw1LjE0ODEyMjc3IFYgNzEuODc3OTMxIEwgMjExLjc5ODY1LDEwNy41NzcxOSBIIDIwMC4zNTM4NCBWIDUuNDkzMjA5NCBjIDAsLTIuODUyMDYgMi4yOTYwNiwtNS4xNDgxMjI3NyA1LjE0ODEyLC01LjE0ODEyMjc3IHoiIHN0eWxlPSJjb2xvcjojMDAwMDAwO29wYWNpdHk6MTtmaWxsOiM1OTg2ZjI7ZmlsbC1vcGFjaXR5OjE7c3Ryb2tlLXdpZHRoOjIwO3N0cm9rZS1saW5lY2FwOnJvdW5kO3N0cm9rZS1saW5lam9pbjpyb3VuZDstaW5rc2NhcGUtc3Ryb2tlOm5vbmUiLz4mI3hhOyAgICA8cGF0aCB0cmFuc2Zvcm09Im1hdHJpeCgwLjI2NDU4MzMzLDAsMCwwLjI2NDU4MzMzLDAuMTk0MzAzNDIsNS40MzExOTI5KSIgZD0ibSA4OTAuMjUxOTUsNzU2Ljc3NTM5IGEgOTguODY0OTg2LDk4Ljg2NDk4NiAwIDAgMCAtOTguODY1MjMsOTguODY1MjMgOTguODY0OTg2LDk4Ljg2NDk4NiAwIDAgMCA5OC44NjUyMyw5OC44NjUyNCA5OC44NjQ5ODYsOTguODY0OTg2IDAgMCAwIDk4Ljg2NTI0LC05OC44NjUyNCA5OC44NjQ5ODYsOTguODY0OTg2IDAgMCAwIC05OC44NjUyNCwtOTguODY1MjMgeiBtIC00ODkuNTMzMiwwLjQ4ODI4IGEgOTguODY0OTg2LDk4Ljg2NDk4NiAwIDAgMCAtOTguODY1MjMsOTguODY1MjQgOTguODY0OTg2LDk4Ljg2NDk4NiAwIDAgMCA5OC44NjUyMyw5OC44NjUyMyA5OC44NjQ5ODYsOTguODY0OTg2IDAgMCAwIDk4Ljg2NTIzLC05OC44NjUyMyA5OC44NjQ5ODYsOTguODY0OTg2IDAgMCAwIC05OC44NjUyMywtOTguODY1MjQgeiIgc3R5bGU9Im9wYWNpdHk6MTtmaWxsOiM3NjllZjU7ZmlsbC1vcGFjaXR5OjE7c3Ryb2tlOm5vbmU7c3Ryb2tlLXdpZHRoOjc1LjU5MDY7c3Ryb2tlLWxpbmVjYXA6cm91bmQ7c3Ryb2tlLWxpbmVqb2luOnJvdW5kO3N0cm9rZS1taXRlcmxpbWl0OjQ7c3Ryb2tlLWRhc2hhcnJheTpub25lIiBpZD0icGF0aDE3OTY3Ii8+JiN4YTsgIDwvZz4mI3hhOzwvc3ZnPg;strokeColor=none;" 
          id="retail_api_" 
          parent="shape_" 
          value=" " 
          vertex="1"
          >
          <mxGeometry
            as="geometry" 
            width="60" 
            height="60" 
            x="30" 
            y="30"
            />
          </mxCell>
        </root>
      </mxGraphModel>
    </diagram>
  </mxfile>